<svg width="200" height="200" viewBox="0 0 138 150" fill="none" xmlns="http://www.w3.org/2000/svg">
  <defs>
    <filter id="blue-glow" x="-50%" y="-50%" width="200%" height="200%">
      <feGaussianBlur stdDeviation="2" result="coloredBlur" />
      <feMerge>
        <feMergeNode in="coloredBlur" />
        <feMergeNode in="SourceGraphic" />
      </feMerge>
    </filter>
    <filter id="red-glow" x="-50%" y="-50%" width="200%" height="200%">
      <feGaussianBlur stdDeviation="3" result="coloredBlur" />
      <feMerge>
        <feMergeNode in="coloredBlur" />
        <feMergeNode in="SourceGraphic" />
      </feMerge>
    </filter>
  </defs>
  <g stroke="#4DB4F8" stroke-width="4" stroke-linecap="round" stroke-linejoin="round" filter="url(#blue-glow)">
    <path d="M69 130 V90" />
    <circle cx="69" cy="130" r="2" fill="#4DB4F8" />
    <path d="M69 90 V60" />
    <circle cx="69" cy="88" r="3" fill="#4DB4F8" />
    <path d="M69 90 L29 65 V45" />
    <circle cx="29" cy="65" r="2" fill="#4DB4F8" />
    <path d="M69 90 L109 65 V45" />
    <circle cx="109" cy="65" r="2" fill="#4DB4F8" />
  </g>
  <g stroke="#1445f5" stroke-width="4" stroke-linecap="round" filter="url(#red-glow)">
    <path d="M59 34 L52 42 L59 50" />
    <path d="M66 32 L72 52" />
    <path d="M79 34 L86 42 L79 50" />
  </g>
  <g stroke="#FF3366" stroke-width="4" stroke-linecap="round" filter="url(#red-glow)">
    <path d="M19 20 L39 40" />
    <path d="M39 20 L19 40" />
    <path d="M99 20 L119 40" />
    <path d="M119 20 L99 40" />
  </g>
</svg>
